<svg width="35" height="35" viewBox="0 0 35 35" fill="none" xmlns="http://www.w3.org/2000/svg">
<rect width="35" height="35" rx="6" fill="#949494" fill-opacity="0.13"/>
<path d="M22.4175 16.4063C22.0413 16.4063 21.7438 16.1 21.7438 15.7325C21.7438 15.4088 21.42 14.735 20.8775 14.1488C20.3437 13.58 19.7575 13.2475 19.2675 13.2475C18.8913 13.2475 18.5938 12.9413 18.5938 12.5738C18.5938 12.2063 18.9 11.9 19.2675 11.9C20.1425 11.9 21.0613 12.3725 21.8663 13.2213C22.6188 14.0175 23.1 15.0063 23.1 15.7238C23.1 16.1 22.7938 16.4063 22.4175 16.4063Z" fill="#262630"/>
<path d="M25.5762 16.4062C25.2 16.4062 24.9025 16.1 24.9025 15.7325C24.9025 12.6262 22.3737 10.1062 19.2762 10.1062C18.9 10.1062 18.6025 9.8 18.6025 9.4325C18.6025 9.065 18.9 8.75 19.2675 8.75C23.1175 8.75 26.25 11.8825 26.25 15.7325C26.25 16.1 25.9437 16.4062 25.5762 16.4062Z" fill="#262630"/>
<path opacity="0.4" d="M17.3162 19.4338L14.455 22.295C14.14 22.015 13.8337 21.7263 13.5362 21.4288C12.635 20.5188 11.8212 19.565 11.095 18.5675C10.3775 17.57 9.8 16.5725 9.38 15.5838C8.96 14.5863 8.75 13.6325 8.75 12.7225C8.75 12.1275 8.855 11.5588 9.065 11.0338C9.275 10.5 9.6075 10.01 10.0712 9.5725C10.6313 9.02125 11.2438 8.75 11.8913 8.75C12.1363 8.75 12.3813 8.8025 12.6 8.9075C12.8275 9.0125 13.0287 9.17 13.1863 9.3975L15.2163 12.2588C15.3738 12.4775 15.4875 12.6788 15.5662 12.8713C15.645 13.055 15.6888 13.2388 15.6888 13.405C15.6888 13.615 15.6275 13.825 15.505 14.0263C15.3913 14.2275 15.225 14.4375 15.015 14.6475L14.35 15.3388C14.2537 15.435 14.21 15.5488 14.21 15.6888C14.21 15.7588 14.2188 15.82 14.2363 15.89C14.2625 15.96 14.2888 16.0125 14.3063 16.065C14.4638 16.3538 14.735 16.73 15.12 17.185C15.5137 17.64 15.9337 18.1038 16.3887 18.5675C16.7037 18.8738 17.01 19.1713 17.3162 19.4338Z" fill="#262630"/>
<path d="M26.2237 23.0388C26.2237 23.2838 26.18 23.5375 26.0925 23.7825C26.0662 23.8525 26.04 23.9225 26.005 23.9925C25.8562 24.3075 25.6637 24.605 25.41 24.885C24.9812 25.3575 24.5087 25.6988 23.975 25.9175C23.9662 25.9175 23.9575 25.9263 23.9487 25.9263C23.4325 26.1363 22.8725 26.25 22.2687 26.25C21.3762 26.25 20.4225 26.04 19.4162 25.6113C18.41 25.1825 17.4037 24.605 16.4062 23.8788C16.065 23.625 15.7237 23.3713 15.4 23.1L18.2612 20.2388C18.5062 20.4225 18.725 20.5625 18.9087 20.6588C18.9525 20.6763 19.005 20.7025 19.0662 20.7288C19.1362 20.755 19.2062 20.7638 19.285 20.7638C19.4337 20.7638 19.5475 20.7113 19.6437 20.615L20.3087 19.9588C20.5275 19.74 20.7375 19.5738 20.9387 19.4688C21.14 19.3463 21.3412 19.285 21.56 19.285C21.7262 19.285 21.9012 19.32 22.0937 19.3988C22.2862 19.4775 22.4875 19.5913 22.7062 19.74L25.6025 21.7963C25.83 21.9538 25.9875 22.1375 26.0837 22.3563C26.1712 22.575 26.2237 22.7938 26.2237 23.0388Z" fill="#262630"/>
</svg>
