<svg width="35" height="35" viewBox="0 0 35 35" fill="none" xmlns="http://www.w3.org/2000/svg">
<rect width="35" height="35" rx="6" fill="#949494" fill-opacity="0.13"/>
<path opacity="0.4" d="M14.875 8.75C12.5825 8.75 10.7188 10.6138 10.7188 12.9062C10.7188 15.155 12.4775 16.975 14.77 17.0538C14.84 17.045 14.91 17.045 14.9625 17.0538C14.98 17.0538 14.9887 17.0538 15.0062 17.0538C15.015 17.0538 15.015 17.0538 15.0238 17.0538C17.2638 16.975 19.0225 15.155 19.0312 12.9062C19.0312 10.6138 17.1675 8.75 14.875 8.75Z" fill="#262630"/>
<path d="M19.32 19.3813C16.8787 17.7538 12.8975 17.7538 10.4387 19.3813C9.3275 20.125 8.715 21.1313 8.715 22.2075C8.715 23.2838 9.3275 24.2813 10.43 25.0163C11.655 25.8388 13.265 26.25 14.875 26.25C16.485 26.25 18.095 25.8388 19.32 25.0163C20.4225 24.2725 21.035 23.275 21.035 22.19C21.0262 21.1138 20.4225 20.1163 19.32 19.3813Z" fill="#262630"/>
<path opacity="0.4" d="M24.4913 13.4225C24.6313 15.12 23.4238 16.6075 21.7525 16.8087C21.7438 16.8087 21.7438 16.8087 21.735 16.8087H21.7088C21.6563 16.8087 21.6038 16.8087 21.56 16.8262C20.7113 16.87 19.9325 16.5987 19.3463 16.1C20.2475 15.295 20.7638 14.0875 20.6588 12.775C20.5975 12.0662 20.3525 11.4187 19.985 10.8675C20.3175 10.7012 20.7025 10.5962 21.0963 10.5612C22.8113 10.4125 24.3425 11.69 24.4913 13.4225Z" fill="#262630"/>
<path d="M26.2412 21.5162C26.1712 22.365 25.6287 23.1 24.7187 23.5987C23.8437 24.08 22.7412 24.3075 21.6475 24.2812C22.2775 23.7125 22.645 23.0037 22.715 22.2512C22.8025 21.1662 22.2862 20.125 21.2537 19.2937C20.6675 18.83 19.985 18.4625 19.2412 18.1912C21.175 17.6312 23.6075 18.0075 25.1037 19.215C25.9087 19.8625 26.32 20.6762 26.2412 21.5162Z" fill="#262630"/>
</svg>
